# xmcd
#
# Track frame offsets: 
#        150
#        21620
#        34228
#        49614
#        67576
#        88839
#        107457
#        124000
#        142033
#        158923
#        180896
#        195636
#        212150
#        233022
#        248695
#        262755
#        285473
#        297895
#        310714
#        328242
#
# Disc length: 4584 seconds
#
# Revision: 0
# Processed by: cddbd v1.5.2PL0 Copyright (c) Steve Scherf et al.
# Submitted via: ExactAudioCopy v1.0b3
#
DISCID=1411e614
DTITLE=Jean-Paul Amouroux, Pierre Calligaris - Piano Duel
DYEAR=1900
DGENRE=
TTITLE0=Mister Freddie Blues
TTITLE1=Please don't talk about me when I'm gone
TTITLE2=When you're smiling
TTITLE3=C Jam Blues
TTITLE4=Gee Baby Ain't I Good To You
TTITLE5=Whispering
TTITLE6=Stiding The Boogie
TTITLE7=Booging The Stide
TTITLE8=Stride Boogie for Chantal
TTITLE9=Boogie Stride for Isabelle
TTITLE10=Darktown Strutter's Ball
TTITLE11=All of Me
TTITLE12=Basin Street Blues
TTITLE13=Blueberry Hill
TTITLE14=Chattanooga Choo Choo
TTITLE15=Georgia on My Mind
TTITLE16=Boy! That Ain't Easy
TTITLE17=Wabash Blues
TTITLE18=My Blue Heaven
TTITLE19=C Jam Blues
EXTD=
EXTT0=
EXTT1=
EXTT2=
EXTT3=
EXTT4=
EXTT5=
EXTT6=
EXTT7=
EXTT8=
EXTT9=
EXTT10=
EXTT11=
EXTT12=
EXTT13=
EXTT14=
EXTT15=
EXTT16=
EXTT17=
EXTT18=
EXTT19=
PLAYORDER=
